<?xml version="1.0" encoding="utf-8"?>
<!-- Generator: Adobe Illustrator 24.0.2, SVG Export Plug-In . SVG Version: 6.00 Build 0)  -->
<svg version="1.1"
	 id="Layer_1" xmlns:cc="http://creativecommons.org/ns#" xmlns:dc="http://purl.org/dc/elements/1.1/" xmlns:inkscape="http://www.inkscape.org/namespaces/inkscape" xmlns:rdf="http://www.w3.org/1999/02/22-rdf-syntax-ns#" xmlns:sodipodi="http://sodipodi.sourceforge.net/DTD/sodipodi-0.dtd" xmlns:svg="http://www.w3.org/2000/svg"
	 xmlns="http://www.w3.org/2000/svg" xmlns:xlink="http://www.w3.org/1999/xlink" x="0px" y="0px" viewBox="0 0 348 348"
	 style="enable-background:new 0 0 348 348;" xml:space="preserve">
<style type="text/css">
	.st0{fill:#FFFFFF;stroke:#000000;stroke-width:5;}
	.st1{fill:#FFFFFF;stroke:#000000;stroke-width:2;}
	.st2{fill:none;stroke:#000000;stroke-width:2;}
	.st3{stroke:#000000;stroke-width:2;}
	.st4{fill:#FFFFFF;}
</style>
<sodipodi:namedview  bordercolor="#666666" borderopacity="1" gridtolerance="10" guidetolerance="10" id="namedview164" inkscape:current-layer="Layer_1" inkscape:cx="174" inkscape:cy="152.19595" inkscape:pageopacity="0" inkscape:pageshadow="2" inkscape:snap-text-baseline="false" inkscape:window-height="916" inkscape:window-maximized="0" inkscape:window-width="1345" inkscape:window-x="2720" inkscape:window-y="248" inkscape:zoom="2.3850575" objecttolerance="10" pagecolor="#ffffff" showgrid="false">
	</sodipodi:namedview>
<path id="Border" class="st0" d="M0,0h348v348H0V0z"/>
<g id="g104">
	<rect id="rect93" x="10" y="19" class="st1" width="91" height="55"/>
	<line id="line95" class="st2" x1="30" y1="19" x2="10" y2="39"/>
	<line id="line97" class="st2" x1="65" y1="19" x2="10" y2="74"/>
	<line id="line99" class="st2" x1="101" y1="19" x2="46" y2="74"/>
	<line id="line101" class="st2" x1="101.3" y1="54.2" x2="81.7" y2="73.8"/>
	<path id="Light" class="st3" d="M37.5,46.5c0-8.4,7-15.2,15.6-15.2c4.1,0,8.1,1.6,11,4.4c2.9,2.8,4.6,6.7,4.6,10.7
		c0,8.4-7,15.2-15.6,15.2C44.4,61.7,37.5,54.9,37.5,46.5L37.5,46.5z"/>
</g>
<g id="g117">
	<rect id="rect106" x="247.5" y="19" class="st1" width="91" height="55"/>
	<line id="line108" class="st2" x1="267.5" y1="19" x2="247.5" y2="39"/>
	<line id="line110" class="st2" x1="302.5" y1="19" x2="247.5" y2="74"/>
	<line id="line112" class="st2" x1="338.5" y1="19" x2="283.5" y2="74"/>
	<line id="line114" class="st2" x1="338.8" y1="54.2" x2="319.2" y2="73.8"/>
	<path id="Light_1_" class="st3" d="M277.4,46.5c0-8.4,7-15.2,15.6-15.2c4.1,0,8.1,1.6,11,4.4c2.9,2.8,4.6,6.7,4.6,10.7
		c0,8.4-7,15.2-15.6,15.2C284.3,61.7,277.4,54.9,277.4,46.5L277.4,46.5z"/>
</g>
<rect id="rect119" x="116" y="24" class="st3" width="117" height="50"/>
<rect id="rect121" x="121" y="74" class="st1" width="103" height="37"/>
<circle id="circle123" class="st3" cx="101.8" cy="157.5" r="9.6"/>
<circle id="circle125" class="st3" cx="243.3" cy="157.5" r="9.6"/>
<circle id="circle127" class="st3" cx="101.1" cy="299.6" r="9.6"/>
<circle id="circle129" class="st3" cx="242.6" cy="299.6" r="9.6"/>
<circle id="circle131" class="st3" cx="131.3" cy="190.5" r="9.6"/>
<circle id="circle133" class="st3" cx="212.3" cy="190.5" r="9.6"/>
<circle id="circle135" class="st3" cx="130.6" cy="269.6" r="9.6"/>
<circle id="circle137" class="st3" cx="212.3" cy="269.6" r="9.6"/>
<polygon id="polygon139" class="st1" points="73,111 59.8,133.9 33.3,133.9 20,111 33.3,88.1 59.8,88.1 "/>
<polygon id="polygon141" class="st1" points="73,157.5 59.8,180.4 33.3,180.4 20,157.5 33.3,134.6 59.8,134.6 "/>
<polygon id="polygon143" class="st1" points="73,204 59.8,226.9 33.3,226.9 20,204 33.3,181.1 59.8,181.1 "/>
<polygon id="polygon145" class="st1" points="73,250.5 59.8,273.4 33.3,273.4 20,250.5 33.3,227.6 59.8,227.6 "/>
<polygon id="polygon147" class="st1" points="73,297 59.8,319.9 33.3,319.9 20,297 33.3,274.1 59.8,274.1 "/>
<polygon id="polygon149" class="st1" points="330,250.5 316.8,273.4 290.3,273.4 277,250.5 290.3,227.6 316.8,227.6 "/>
<polygon id="polygon151" class="st1" points="330,204 316.8,226.9 290.3,226.9 277,204 290.3,181.1 316.8,181.1 "/>
<polygon id="polygon153" class="st1" points="330,158.1 316.8,181.1 290.3,181.1 277,158.1 290.3,135.2 316.8,135.2 "/>
<polygon id="polygon155" class="st1" points="330,111 316.8,133.9 290.3,133.9 277,111 290.3,88.1 316.8,88.1 "/>
<polygon id="polygon157" class="st1" points="330,297 316.8,319.9 290.3,319.9 277,297 290.3,274.1 316.8,274.1 "/>
<g>
	<polygon class="st4" points="123.7,45.1 131.9,45.1 138.5,49 131.9,52.9 121.8,52.9 119.9,51.9 	"/>
	<polygon class="st4" points="142.1,49 148.5,45.1 158.8,45.1 160.5,46.3 156.5,52.9 148.7,52.9 	"/>
</g>
<g>
	<polygon class="st4" points="191.1,45.1 199.3,45.1 205.9,49 199.3,52.9 189.2,52.9 187.3,51.9 	"/>
	<polygon class="st4" points="209.5,49 215.9,45.1 226.2,45.1 227.9,46.3 223.9,52.9 216.1,52.9 	"/>
</g>
<g>
	<polygon points="125.3,90.1 128.7,90.1 131.4,92.5 128.7,94.9 124.6,94.9 123.8,94.3 	"/>
	<polygon points="132.8,92.5 135.4,90.1 139.6,90.1 140.3,90.9 138.7,94.9 135.5,94.9 	"/>
</g>
<g>
	<polygon points="152.1,90.1 155.4,90.1 158.1,92.5 155.4,94.9 151.3,94.9 150.5,94.3 	"/>
	<polygon points="159.5,92.5 162.2,90.1 166.3,90.1 167,90.9 165.4,94.9 162.2,94.9 	"/>
</g>
<g>
	<polygon points="179.5,90.1 182.8,90.1 185.5,92.5 182.8,94.9 178.7,94.9 177.9,94.3 	"/>
	<polygon points="186.9,92.5 189.6,90.1 193.7,90.1 194.4,90.9 192.8,94.9 189.6,94.9 	"/>
</g>
<g>
	<polygon points="207,90.1 210.3,90.1 213,92.5 210.3,94.9 206.2,94.9 205.4,94.3 	"/>
	<polygon points="214.4,92.5 217.1,90.1 221.2,90.1 221.9,90.9 220.3,94.9 217.1,94.9 	"/>
</g>
</svg>
